<mxfile host="Electron" agent="Mozilla/5.0 (Windows NT 10.0; Win64; x64) AppleWebKit/537.36 (KHTML, like Gecko) draw.io/24.7.17 Chrome/128.0.6613.36 Electron/32.0.1 Safari/537.36" version="24.7.17">
  <diagram name="Page-1" id="I-H7_0dSGoDFWZTYf1x5">
    <mxGraphModel dx="2480" dy="1010" grid="1" gridSize="10" guides="1" tooltips="1" connect="1" arrows="1" fold="1" page="1" pageScale="1" pageWidth="850" pageHeight="1100" math="0" shadow="0">
      <root>
        <mxCell id="0" />
        <mxCell id="1" parent="0" />
        <mxCell id="wrGYtolbi3Vp5R65CO-8-1" value="URLs" style="whiteSpace=wrap;html=1;align=center;" vertex="1" parent="1">
          <mxGeometry x="370" y="290" width="100" height="40" as="geometry" />
        </mxCell>
        <mxCell id="wrGYtolbi3Vp5R65CO-8-2" value="URLID" style="ellipse;whiteSpace=wrap;html=1;align=center;fontStyle=4;" vertex="1" parent="1">
          <mxGeometry x="280" y="210" width="100" height="40" as="geometry" />
        </mxCell>
        <mxCell id="wrGYtolbi3Vp5R65CO-8-3" value="" style="endArrow=none;html=1;rounded=0;exitX=0.664;exitY=1.005;exitDx=0;exitDy=0;exitPerimeter=0;entryX=0.25;entryY=0;entryDx=0;entryDy=0;" edge="1" parent="1" source="wrGYtolbi3Vp5R65CO-8-2" target="wrGYtolbi3Vp5R65CO-8-1">
          <mxGeometry relative="1" as="geometry">
            <mxPoint x="340" y="310" as="sourcePoint" />
            <mxPoint x="500" y="310" as="targetPoint" />
          </mxGeometry>
        </mxCell>
        <mxCell id="wrGYtolbi3Vp5R65CO-8-4" value="CreatedAT" style="ellipse;whiteSpace=wrap;html=1;align=center;" vertex="1" parent="1">
          <mxGeometry x="510" y="340" width="100" height="40" as="geometry" />
        </mxCell>
        <mxCell id="wrGYtolbi3Vp5R65CO-8-5" value="HTMLContent" style="ellipse;whiteSpace=wrap;html=1;align=center;" vertex="1" parent="1">
          <mxGeometry x="240" y="330" width="100" height="40" as="geometry" />
        </mxCell>
        <mxCell id="wrGYtolbi3Vp5R65CO-8-6" value="URL" style="ellipse;whiteSpace=wrap;html=1;align=center;" vertex="1" parent="1">
          <mxGeometry x="425" y="210" width="100" height="40" as="geometry" />
        </mxCell>
        <mxCell id="wrGYtolbi3Vp5R65CO-8-7" value="&lt;div style=&quot;text-align: left;&quot;&gt;DetectedLink&lt;/div&gt;" style="whiteSpace=wrap;html=1;align=center;" vertex="1" parent="1">
          <mxGeometry x="1070" y="300" width="100" height="40" as="geometry" />
        </mxCell>
        <mxCell id="wrGYtolbi3Vp5R65CO-8-8" value="DetectedLinkID" style="ellipse;whiteSpace=wrap;html=1;align=center;fontStyle=4;" vertex="1" parent="1">
          <mxGeometry x="980" y="220" width="100" height="40" as="geometry" />
        </mxCell>
        <mxCell id="wrGYtolbi3Vp5R65CO-8-9" value="" style="endArrow=none;html=1;rounded=0;exitX=0.664;exitY=1.005;exitDx=0;exitDy=0;exitPerimeter=0;entryX=0.25;entryY=0;entryDx=0;entryDy=0;" edge="1" parent="1" source="wrGYtolbi3Vp5R65CO-8-8" target="wrGYtolbi3Vp5R65CO-8-7">
          <mxGeometry relative="1" as="geometry">
            <mxPoint x="1040" y="320" as="sourcePoint" />
            <mxPoint x="1200" y="320" as="targetPoint" />
          </mxGeometry>
        </mxCell>
        <mxCell id="wrGYtolbi3Vp5R65CO-8-10" value="Detected_AT" style="ellipse;whiteSpace=wrap;html=1;align=center;" vertex="1" parent="1">
          <mxGeometry x="1110" y="380" width="100" height="40" as="geometry" />
        </mxCell>
        <mxCell id="wrGYtolbi3Vp5R65CO-8-11" value="&lt;div style=&quot;text-align: left;&quot;&gt;PhishingScore&lt;/div&gt;" style="ellipse;whiteSpace=wrap;html=1;align=center;" vertex="1" parent="1">
          <mxGeometry x="940" y="340" width="100" height="40" as="geometry" />
        </mxCell>
        <mxCell id="wrGYtolbi3Vp5R65CO-8-13" value="ScanResults" style="whiteSpace=wrap;html=1;align=center;" vertex="1" parent="1">
          <mxGeometry x="710" y="750" width="100" height="40" as="geometry" />
        </mxCell>
        <mxCell id="wrGYtolbi3Vp5R65CO-8-14" value="ScanResultsID" style="ellipse;whiteSpace=wrap;html=1;align=center;fontStyle=4;" vertex="1" parent="1">
          <mxGeometry x="670" y="640" width="100" height="40" as="geometry" />
        </mxCell>
        <mxCell id="wrGYtolbi3Vp5R65CO-8-15" value="" style="endArrow=none;html=1;rounded=0;exitX=0.664;exitY=1.005;exitDx=0;exitDy=0;exitPerimeter=0;entryX=0.25;entryY=0;entryDx=0;entryDy=0;" edge="1" parent="1" source="wrGYtolbi3Vp5R65CO-8-14" target="wrGYtolbi3Vp5R65CO-8-13">
          <mxGeometry relative="1" as="geometry">
            <mxPoint x="680" y="770" as="sourcePoint" />
            <mxPoint x="840" y="770" as="targetPoint" />
          </mxGeometry>
        </mxCell>
        <mxCell id="wrGYtolbi3Vp5R65CO-8-16" value="Phishing_URLs_Found" style="ellipse;whiteSpace=wrap;html=1;align=center;" vertex="1" parent="1">
          <mxGeometry x="700" y="840" width="140" height="40" as="geometry" />
        </mxCell>
        <mxCell id="wrGYtolbi3Vp5R65CO-8-17" value="Total_URL_Scan" style="ellipse;whiteSpace=wrap;html=1;align=center;" vertex="1" parent="1">
          <mxGeometry x="510" y="740" width="140" height="40" as="geometry" />
        </mxCell>
        <mxCell id="wrGYtolbi3Vp5R65CO-8-18" value="&lt;div style=&quot;text-align: left;&quot;&gt;ScanDate&lt;/div&gt;" style="ellipse;whiteSpace=wrap;html=1;align=center;" vertex="1" parent="1">
          <mxGeometry x="790" y="650" width="100" height="40" as="geometry" />
        </mxCell>
        <mxCell id="wrGYtolbi3Vp5R65CO-8-19" value="" style="endArrow=none;html=1;rounded=0;exitX=1;exitY=0.75;exitDx=0;exitDy=0;entryX=0;entryY=0;entryDx=0;entryDy=0;" edge="1" parent="1" source="wrGYtolbi3Vp5R65CO-8-1" target="wrGYtolbi3Vp5R65CO-8-4">
          <mxGeometry relative="1" as="geometry">
            <mxPoint x="480" y="410" as="sourcePoint" />
            <mxPoint x="530" y="350" as="targetPoint" />
          </mxGeometry>
        </mxCell>
        <mxCell id="wrGYtolbi3Vp5R65CO-8-20" value="" style="endArrow=none;html=1;rounded=0;entryX=0.5;entryY=1;entryDx=0;entryDy=0;exitX=0.75;exitY=0;exitDx=0;exitDy=0;" edge="1" parent="1" source="wrGYtolbi3Vp5R65CO-8-1" target="wrGYtolbi3Vp5R65CO-8-6">
          <mxGeometry relative="1" as="geometry">
            <mxPoint x="480" y="410" as="sourcePoint" />
            <mxPoint x="640" y="410" as="targetPoint" />
          </mxGeometry>
        </mxCell>
        <mxCell id="wrGYtolbi3Vp5R65CO-8-23" value="" style="endArrow=none;html=1;rounded=0;entryX=0.25;entryY=1;entryDx=0;entryDy=0;exitX=1;exitY=0.5;exitDx=0;exitDy=0;" edge="1" parent="1" source="wrGYtolbi3Vp5R65CO-8-5" target="wrGYtolbi3Vp5R65CO-8-1">
          <mxGeometry relative="1" as="geometry">
            <mxPoint x="480" y="410" as="sourcePoint" />
            <mxPoint x="640" y="410" as="targetPoint" />
          </mxGeometry>
        </mxCell>
        <mxCell id="wrGYtolbi3Vp5R65CO-8-28" value="" style="endArrow=none;html=1;rounded=0;entryX=0;entryY=1;entryDx=0;entryDy=0;exitX=1;exitY=0.5;exitDx=0;exitDy=0;" edge="1" parent="1" source="wrGYtolbi3Vp5R65CO-8-11" target="wrGYtolbi3Vp5R65CO-8-7">
          <mxGeometry relative="1" as="geometry">
            <mxPoint x="870" y="500" as="sourcePoint" />
            <mxPoint x="1030" y="500" as="targetPoint" />
          </mxGeometry>
        </mxCell>
        <mxCell id="wrGYtolbi3Vp5R65CO-8-33" value="" style="endArrow=none;html=1;rounded=0;exitX=0.75;exitY=1;exitDx=0;exitDy=0;" edge="1" parent="1" source="wrGYtolbi3Vp5R65CO-8-7" target="wrGYtolbi3Vp5R65CO-8-10">
          <mxGeometry relative="1" as="geometry">
            <mxPoint x="870" y="500" as="sourcePoint" />
            <mxPoint x="1030" y="500" as="targetPoint" />
          </mxGeometry>
        </mxCell>
        <mxCell id="wrGYtolbi3Vp5R65CO-8-34" value="" style="endArrow=none;html=1;rounded=0;entryX=0.5;entryY=1;entryDx=0;entryDy=0;" edge="1" parent="1" source="wrGYtolbi3Vp5R65CO-8-13" target="wrGYtolbi3Vp5R65CO-8-18">
          <mxGeometry relative="1" as="geometry">
            <mxPoint x="710" y="670" as="sourcePoint" />
            <mxPoint x="870" y="670" as="targetPoint" />
          </mxGeometry>
        </mxCell>
        <mxCell id="wrGYtolbi3Vp5R65CO-8-35" value="" style="endArrow=none;html=1;rounded=0;exitX=1;exitY=0.5;exitDx=0;exitDy=0;entryX=0;entryY=0.75;entryDx=0;entryDy=0;" edge="1" parent="1" source="wrGYtolbi3Vp5R65CO-8-17" target="wrGYtolbi3Vp5R65CO-8-13">
          <mxGeometry relative="1" as="geometry">
            <mxPoint x="710" y="670" as="sourcePoint" />
            <mxPoint x="870" y="670" as="targetPoint" />
          </mxGeometry>
        </mxCell>
        <mxCell id="wrGYtolbi3Vp5R65CO-8-36" value="" style="endArrow=none;html=1;rounded=0;entryX=0.5;entryY=0;entryDx=0;entryDy=0;exitX=0.75;exitY=1;exitDx=0;exitDy=0;" edge="1" parent="1" source="wrGYtolbi3Vp5R65CO-8-13" target="wrGYtolbi3Vp5R65CO-8-16">
          <mxGeometry relative="1" as="geometry">
            <mxPoint x="710" y="670" as="sourcePoint" />
            <mxPoint x="870" y="670" as="targetPoint" />
          </mxGeometry>
        </mxCell>
        <mxCell id="wrGYtolbi3Vp5R65CO-8-37" value="" style="endArrow=none;html=1;rounded=0;entryX=0.25;entryY=1;entryDx=0;entryDy=0;exitX=1;exitY=0;exitDx=0;exitDy=0;" edge="1" parent="1" source="wrGYtolbi3Vp5R65CO-8-38" target="wrGYtolbi3Vp5R65CO-8-13">
          <mxGeometry relative="1" as="geometry">
            <mxPoint x="760" y="860" as="sourcePoint" />
            <mxPoint x="870" y="890" as="targetPoint" />
          </mxGeometry>
        </mxCell>
        <mxCell id="wrGYtolbi3Vp5R65CO-8-38" value="Report" style="ellipse;whiteSpace=wrap;html=1;align=center;" vertex="1" parent="1">
          <mxGeometry x="600" y="810" width="100" height="40" as="geometry" />
        </mxCell>
        <mxCell id="wrGYtolbi3Vp5R65CO-8-39" value="" style="endArrow=none;html=1;rounded=0;entryX=1;entryY=0.5;entryDx=0;entryDy=0;exitX=0;exitY=1;exitDx=0;exitDy=0;" edge="1" parent="1" source="wrGYtolbi3Vp5R65CO-8-40" target="wrGYtolbi3Vp5R65CO-8-7">
          <mxGeometry relative="1" as="geometry">
            <mxPoint x="1240" y="340" as="sourcePoint" />
            <mxPoint x="1000" y="380" as="targetPoint" />
          </mxGeometry>
        </mxCell>
        <mxCell id="wrGYtolbi3Vp5R65CO-8-40" value="URLID" style="ellipse;whiteSpace=wrap;html=1;align=center;" vertex="1" parent="1">
          <mxGeometry x="1190" y="228" width="100" height="40" as="geometry" />
        </mxCell>
        <mxCell id="wrGYtolbi3Vp5R65CO-8-42" value="" style="endArrow=none;dashed=1;html=1;rounded=0;exitX=0.25;exitY=0.75;exitDx=0;exitDy=0;exitPerimeter=0;" edge="1" parent="1" source="wrGYtolbi3Vp5R65CO-8-40">
          <mxGeometry width="50" height="50" relative="1" as="geometry">
            <mxPoint x="1215" y="298" as="sourcePoint" />
            <mxPoint x="1265" y="258" as="targetPoint" />
          </mxGeometry>
        </mxCell>
        <mxCell id="wrGYtolbi3Vp5R65CO-8-46" value="DetectedLinkID" style="ellipse;whiteSpace=wrap;html=1;align=center;" vertex="1" parent="1">
          <mxGeometry x="865" y="830" width="115" height="40" as="geometry" />
        </mxCell>
        <mxCell id="wrGYtolbi3Vp5R65CO-8-47" value="" style="endArrow=none;html=1;rounded=0;entryX=0;entryY=0.5;entryDx=0;entryDy=0;exitX=1;exitY=0.75;exitDx=0;exitDy=0;" edge="1" parent="1" source="wrGYtolbi3Vp5R65CO-8-13" target="wrGYtolbi3Vp5R65CO-8-46">
          <mxGeometry relative="1" as="geometry">
            <mxPoint x="700" y="540" as="sourcePoint" />
            <mxPoint x="860" y="540" as="targetPoint" />
          </mxGeometry>
        </mxCell>
        <mxCell id="wrGYtolbi3Vp5R65CO-8-48" value="" style="endArrow=none;dashed=1;html=1;rounded=0;exitX=0.217;exitY=0.75;exitDx=0;exitDy=0;exitPerimeter=0;" edge="1" parent="1" source="wrGYtolbi3Vp5R65CO-8-46">
          <mxGeometry width="50" height="50" relative="1" as="geometry">
            <mxPoint x="925" y="920" as="sourcePoint" />
            <mxPoint x="963" y="860" as="targetPoint" />
          </mxGeometry>
        </mxCell>
        <mxCell id="wrGYtolbi3Vp5R65CO-8-50" value="detects" style="rhombus;whiteSpace=wrap;html=1;" vertex="1" parent="1">
          <mxGeometry x="700" y="250" width="80" height="80" as="geometry" />
        </mxCell>
        <mxCell id="wrGYtolbi3Vp5R65CO-8-51" value="" style="fontSize=12;html=1;endArrow=ERoneToMany;rounded=0;exitX=1;exitY=0.5;exitDx=0;exitDy=0;" edge="1" parent="1" source="wrGYtolbi3Vp5R65CO-8-50">
          <mxGeometry width="100" height="100" relative="1" as="geometry">
            <mxPoint x="970" y="420" as="sourcePoint" />
            <mxPoint x="1070" y="320" as="targetPoint" />
          </mxGeometry>
        </mxCell>
        <mxCell id="wrGYtolbi3Vp5R65CO-8-52" value="" style="endArrow=none;html=1;rounded=0;exitX=1;exitY=0.25;exitDx=0;exitDy=0;entryX=0;entryY=0.5;entryDx=0;entryDy=0;" edge="1" parent="1" source="wrGYtolbi3Vp5R65CO-8-1" target="wrGYtolbi3Vp5R65CO-8-50">
          <mxGeometry relative="1" as="geometry">
            <mxPoint x="690" y="320" as="sourcePoint" />
            <mxPoint x="700" y="310" as="targetPoint" />
          </mxGeometry>
        </mxCell>
        <mxCell id="wrGYtolbi3Vp5R65CO-8-56" value="m" style="text;html=1;align=center;verticalAlign=middle;resizable=0;points=[];autosize=1;strokeColor=none;fillColor=none;" vertex="1" parent="1">
          <mxGeometry x="1045" y="288" width="30" height="30" as="geometry" />
        </mxCell>
        <mxCell id="wrGYtolbi3Vp5R65CO-8-57" value="1" style="text;html=1;align=center;verticalAlign=middle;resizable=0;points=[];autosize=1;strokeColor=none;fillColor=none;" vertex="1" parent="1">
          <mxGeometry x="465" y="268" width="30" height="30" as="geometry" />
        </mxCell>
        <mxCell id="wrGYtolbi3Vp5R65CO-8-60" value="&lt;div style=&quot;text-align: left;&quot;&gt;generates&lt;/div&gt;" style="rhombus;whiteSpace=wrap;html=1;" vertex="1" parent="1">
          <mxGeometry x="1040" y="550" width="80" height="80" as="geometry" />
        </mxCell>
        <mxCell id="wrGYtolbi3Vp5R65CO-8-61" value="" style="endArrow=none;html=1;rounded=0;entryX=0.25;entryY=1;entryDx=0;entryDy=0;exitX=1;exitY=0.5;exitDx=0;exitDy=0;" edge="1" parent="1" source="wrGYtolbi3Vp5R65CO-8-60" target="wrGYtolbi3Vp5R65CO-8-7">
          <mxGeometry width="50" height="50" relative="1" as="geometry">
            <mxPoint x="840" y="600" as="sourcePoint" />
            <mxPoint x="1130" y="350" as="targetPoint" />
          </mxGeometry>
        </mxCell>
        <mxCell id="wrGYtolbi3Vp5R65CO-8-62" value="" style="edgeStyle=elbowEdgeStyle;fontSize=12;html=1;endArrow=ERoneToMany;rounded=0;entryX=1;entryY=0;entryDx=0;entryDy=0;exitX=0;exitY=0.5;exitDx=0;exitDy=0;" edge="1" parent="1" source="wrGYtolbi3Vp5R65CO-8-60">
          <mxGeometry width="100" height="100" relative="1" as="geometry">
            <mxPoint x="1000" y="618" as="sourcePoint" />
            <mxPoint x="810" y="758" as="targetPoint" />
          </mxGeometry>
        </mxCell>
        <mxCell id="wrGYtolbi3Vp5R65CO-8-63" value="m" style="text;html=1;align=center;verticalAlign=middle;resizable=0;points=[];autosize=1;strokeColor=none;fillColor=none;" vertex="1" parent="1">
          <mxGeometry x="805" y="728" width="30" height="30" as="geometry" />
        </mxCell>
        <mxCell id="wrGYtolbi3Vp5R65CO-8-64" value="1" style="text;html=1;align=center;verticalAlign=middle;resizable=0;points=[];autosize=1;strokeColor=none;fillColor=none;" vertex="1" parent="1">
          <mxGeometry x="1075" y="338" width="30" height="30" as="geometry" />
        </mxCell>
      </root>
    </mxGraphModel>
  </diagram>
</mxfile>
